<svg width="34" height="29" viewBox="0 0 34 29" fill="none" xmlns="http://www.w3.org/2000/svg">
<path d="M15.3975 8.13353C14.5123 7.37857 14.5123 6.15477 15.3975 5.3998C16.2826 4.64483 17.7174 4.64483 18.6025 5.3998C19.4877 6.15477 19.4877 7.37857 18.6025 8.13353C17.7174 8.8885 16.2826 8.8885 15.3975 8.13353ZM34 14.5C34 22.4953 26.3738 29 17 29C7.6262 29 0 22.4953 0 14.5C0 6.5047 7.6262 0 17 0C26.3738 0 34 6.5047 34 14.5ZM31.7333 14.5C31.7333 7.57093 25.1237 1.93333 17 1.93333C8.87627 1.93333 2.26667 7.57093 2.26667 14.5C2.26667 21.4291 8.87627 27.0667 17 27.0667C25.1237 27.0667 31.7333 21.4291 31.7333 14.5ZM20.4 22.2333H19.2667V11.6C19.2667 11.0664 18.7589 10.6333 18.1333 10.6333H15.8667C15.2411 10.6333 14.7333 11.0664 14.7333 11.6C14.7333 12.1336 15.2411 12.5667 15.8667 12.5667H17V22.2333H15.8667C15.2411 22.2333 14.7333 22.6664 14.7333 23.2C14.7333 23.7336 15.2411 24.1667 15.8667 24.1667H20.4C21.0256 24.1667 21.5333 23.7336 21.5333 23.2C21.5333 22.6664 21.0256 22.2333 20.4 22.2333Z" fill="black"/>
</svg>
