<svg width="40" height="35" viewBox="0 0 40 35" fill="none" xmlns="http://www.w3.org/2000/svg">
<path d="M15 14C18.866 14 22 11.5376 22 8.5C22 5.46244 18.866 3 15 3C11.134 3 8 5.46244 8 8.5C8 11.5376 11.134 14 15 14Z" stroke="#121212" stroke-width="4.5" stroke-linecap="round" stroke-linejoin="round"/>
<path d="M18.6923 30H3V28.8086C3.02082 27.1332 3.54656 25.4899 4.52809 24.0318C5.50964 22.5737 6.91497 21.3484 8.6128 20.4704C10.3107 19.5924 12.2456 19.0903 14.2369 19.0111C16.2283 18.9319 18.2111 19.2781 20 20.0173" stroke="#121212" stroke-width="4.5" stroke-linecap="round" stroke-linejoin="round"/>
<path d="M29 19V32" stroke="#121212" stroke-width="4.5" stroke-linecap="round" stroke-linejoin="round"/>
<path d="M22 25H37" stroke="#121212" stroke-width="4.5" stroke-linecap="round" stroke-linejoin="round"/>
</svg>
