<svg width="40" height="35" viewBox="0 0 40 35" fill="none" xmlns="http://www.w3.org/2000/svg">
<path d="M19.9999 19.6748C23.611 19.6748 26.5383 17.2404 26.5383 14.2373C26.5383 11.2343 23.611 8.7998 19.9999 8.7998C16.3888 8.7998 13.4614 11.2343 13.4614 14.2373C13.4614 17.2404 16.3888 19.6748 19.9999 19.6748Z" stroke="#121212" stroke-width="4.5" stroke-linecap="round" stroke-linejoin="round"/>
<path d="M28.2821 26.1998C25.9958 24.3311 23.0505 23.2998 20.0001 23.2998C16.9496 23.2998 14.0043 24.3311 11.718 26.1998" stroke="#121212" stroke-width="4.5" stroke-linecap="round" stroke-linejoin="round"/>
<path d="M37 25.4751V29.8251C37 30.4019 36.7244 30.9552 36.2339 31.3631C35.7435 31.7709 35.0782 32.0001 34.3846 32.0001H29.1538" stroke="#121212" stroke-width="4.5" stroke-linecap="round" stroke-linejoin="round"/>
<path d="M29.1539 3H34.3846C35.0783 3 35.7435 3.22915 36.234 3.63704C36.7245 4.04493 37 4.59815 37 5.175V9.525" stroke="#121212" stroke-width="4.5" stroke-linecap="round" stroke-linejoin="round"/>
<path d="M3 9.525V5.175C3 4.59815 3.27555 4.04493 3.76603 3.63704C4.25651 3.22915 4.92174 3 5.61538 3H10.8462" stroke="#121212" stroke-width="4.5" stroke-linecap="round" stroke-linejoin="round"/>
<path d="M10.8462 32.0001H5.61538C4.92174 32.0001 4.25651 31.7709 3.76603 31.3631C3.27555 30.9552 3 30.4019 3 29.8251V25.4751" stroke="#121212" stroke-width="4.5" stroke-linecap="round" stroke-linejoin="round"/>
</svg>
