<svg width="34" height="29" viewBox="0 0 34 29" fill="none" xmlns="http://www.w3.org/2000/svg">
<g clip-path="url(#clip0_22_143)">
<path d="M21.4699 2.50377C20.7957 2.34087 20.1099 2.21552 19.4166 2.12854L19.7543 0.171143C20.5474 0.270693 21.332 0.414106 22.1033 0.600473L21.4699 2.50377Z" fill="black"/>
<path d="M28.0971 28.8296L20.8955 25.7363C19.6228 25.9662 18.3146 26.0825 17 26.0825C8.48862 26.0825 0.0379639 20.7251 0.0379639 13.0413C0.0379639 5.35741 8.48862 0 17 0V1.97848C8.92615 1.97848 2.35756 6.94125 2.35756 13.0413C2.35756 19.1413 8.92615 24.1041 17 24.1041C18.2796 24.1041 19.5515 23.9786 20.7802 23.731C21.0457 23.6775 21.3248 23.7055 21.5685 23.8102L27.4589 26.3402V21.209C27.4589 21.0765 27.4901 20.9454 27.5507 20.8234C27.6112 20.7014 27.6999 20.591 27.8114 20.4988C30.2819 18.4556 31.6425 15.8071 31.6425 13.0413C31.6425 8.75051 28.3105 4.80931 23.154 3.00074L24.0362 1.17089C29.6796 3.15023 33.9621 7.71112 33.9621 13.0413C33.9621 16.212 32.4804 19.2418 29.7785 21.6186V27.946C29.8484 28.8425 28.9967 29.2599 28.0971 28.8296Z" fill="black"/>
<path d="M11.2098 21.5551C9.78525 21.0055 8.54441 20.1518 7.62926 19.0703L6.98173 18.3052C6.35377 17.5632 6.44866 16.5549 7.20753 15.9079L9.74002 13.7483C10.6771 12.9492 12.2724 13.0664 13.0408 13.9746L13.918 15.0111L19.3461 10.3825L18.1312 9.63508C17.0661 8.97971 16.9286 7.61845 17.8661 6.81909L20.3985 4.65964C21.157 4.01298 22.3385 3.93193 23.2084 4.46711L24.1018 5.01688C25.3767 5.80185 26.385 6.86084 27.0243 8.08612C28.0249 10.0058 27.5192 12.3208 25.7796 13.8042L17.9273 20.5001C16.8038 21.458 14.3663 22.7731 11.2098 21.5551ZM12.1703 19.7542C13.5591 20.2794 15.2126 20.0172 16.2872 19.1008L24.1396 12.4049C25.2151 11.4877 25.5226 10.0751 24.9047 8.88981C24.4322 7.98417 23.6869 7.20144 22.7446 6.62124L21.9512 6.13305L19.6266 8.11542L21.8084 9.45795C22.3796 9.80944 22.448 10.535 21.9499 10.9598L14.5949 17.2316C14.0969 17.6563 13.2467 17.598 12.8345 17.111L11.2597 15.2501L8.9349 17.2326L9.51023 17.9124C10.1907 18.7159 11.1085 19.3514 12.1703 19.7542C13.5592 20.2794 12.1677 19.7532 12.1703 19.7542Z" fill="black"/>
</g>
<defs>
<clipPath id="clip0_22_143">
<rect width="34" height="29" fill="white"/>
</clipPath>
</defs>
</svg>
