<svg width="34" height="29" viewBox="0 0 34 29" fill="none" xmlns="http://www.w3.org/2000/svg">
<path d="M17 17.4C17.3362 17.4 17.6649 17.315 17.9445 17.1556C18.224 16.9963 18.4419 16.7698 18.5706 16.5049C18.6993 16.2399 18.7329 15.9484 18.6673 15.6671C18.6017 15.3858 18.4398 15.1275 18.2021 14.9247C17.9643 14.7219 17.6614 14.5838 17.3317 14.5279C17.0019 14.4719 16.6601 14.5006 16.3494 14.6104C16.0388 14.7201 15.7733 14.906 15.5865 15.1444C15.3997 15.3829 15.3 15.6632 15.3 15.95C15.3 16.3346 15.4791 16.7034 15.7979 16.9753C16.1167 17.2472 16.5491 17.4 17 17.4ZM25.5 17.4C25.8362 17.4 26.1649 17.315 26.4445 17.1556C26.724 16.9963 26.9419 16.7698 27.0706 16.5049C27.1993 16.2399 27.2329 15.9484 27.1673 15.6671C27.1017 15.3858 26.9398 15.1275 26.7021 14.9247C26.4643 14.7219 26.1614 14.5838 25.8317 14.5279C25.5019 14.4719 25.1601 14.5006 24.8494 14.6104C24.5388 14.7201 24.2733 14.906 24.0865 15.1444C23.8997 15.3829 23.8 15.6632 23.8 15.95C23.8 16.3346 23.9791 16.7034 24.2979 16.9753C24.6167 17.2472 25.0491 17.4 25.5 17.4ZM17 23.2C17.3362 23.2 17.6649 23.115 17.9445 22.9556C18.224 22.7963 18.4419 22.5698 18.5706 22.3049C18.6993 22.0399 18.7329 21.7484 18.6673 21.4671C18.6017 21.1858 18.4398 20.9275 18.2021 20.7247C17.9643 20.5219 17.6614 20.3838 17.3317 20.3279C17.0019 20.2719 16.6601 20.3006 16.3494 20.4104C16.0388 20.5201 15.7733 20.706 15.5865 20.9444C15.3997 21.1829 15.3 21.4632 15.3 21.75C15.3 22.1346 15.4791 22.5034 15.7979 22.7753C16.1167 23.0472 16.5491 23.2 17 23.2ZM25.5 23.2C25.8362 23.2 26.1649 23.115 26.4445 22.9556C26.724 22.7963 26.9419 22.5698 27.0706 22.3049C27.1993 22.0399 27.2329 21.7484 27.1673 21.4671C27.1017 21.1858 26.9398 20.9275 26.7021 20.7247C26.4643 20.5219 26.1614 20.3838 25.8317 20.3279C25.5019 20.2719 25.1601 20.3006 24.8494 20.4104C24.5388 20.5201 24.2733 20.706 24.0865 20.9444C23.8997 21.1829 23.8 21.4632 23.8 21.75C23.8 22.1346 23.9791 22.5034 24.2979 22.7753C24.6167 23.0472 25.0491 23.2 25.5 23.2ZM8.5 17.4C8.83623 17.4 9.16491 17.315 9.44447 17.1556C9.72403 16.9963 9.94193 16.7698 10.0706 16.5049C10.1993 16.2399 10.2329 15.9484 10.1673 15.6671C10.1017 15.3858 9.93983 15.1275 9.70208 14.9247C9.46433 14.7219 9.16142 14.5838 8.83165 14.5279C8.50189 14.4719 8.16007 14.5006 7.84944 14.6104C7.5388 14.7201 7.2733 14.906 7.0865 15.1444C6.8997 15.3829 6.8 15.6632 6.8 15.95C6.8 16.3346 6.97911 16.7034 7.29792 16.9753C7.61673 17.2472 8.04913 17.4 8.5 17.4ZM28.9 2.9H27.2V1.45C27.2 1.06544 27.0209 0.696623 26.7021 0.424695C26.3833 0.152767 25.9509 0 25.5 0C25.0491 0 24.6167 0.152767 24.2979 0.424695C23.9791 0.696623 23.8 1.06544 23.8 1.45V2.9H10.2V1.45C10.2 1.06544 10.0209 0.696623 9.70208 0.424695C9.38327 0.152767 8.95087 0 8.5 0C8.04913 0 7.61673 0.152767 7.29792 0.424695C6.97911 0.696623 6.8 1.06544 6.8 1.45V2.9H5.1C3.7474 2.9 2.45019 3.3583 1.49376 4.17409C0.53732 4.98987 0 6.09631 0 7.25V24.65C0 25.8037 0.53732 26.9101 1.49376 27.7259C2.45019 28.5417 3.7474 29 5.1 29H28.9C30.2526 29 31.5498 28.5417 32.5062 27.7259C33.4627 26.9101 34 25.8037 34 24.65V7.25C34 6.09631 33.4627 4.98987 32.5062 4.17409C31.5498 3.3583 30.2526 2.9 28.9 2.9ZM30.6 24.65C30.6 25.0346 30.4209 25.4034 30.1021 25.6753C29.7833 25.9472 29.3509 26.1 28.9 26.1H5.1C4.64913 26.1 4.21673 25.9472 3.89792 25.6753C3.57911 25.4034 3.4 25.0346 3.4 24.65V11.6H30.6V24.65ZM30.6 8.7H3.4V7.25C3.4 6.86544 3.57911 6.49662 3.89792 6.2247C4.21673 5.95277 4.64913 5.8 5.1 5.8H28.9C29.3509 5.8 29.7833 5.95277 30.1021 6.2247C30.4209 6.49662 30.6 6.86544 30.6 7.25V8.7ZM8.5 23.2C8.83623 23.2 9.16491 23.115 9.44447 22.9556C9.72403 22.7963 9.94193 22.5698 10.0706 22.3049C10.1993 22.0399 10.2329 21.7484 10.1673 21.4671C10.1017 21.1858 9.93983 20.9275 9.70208 20.7247C9.46433 20.5219 9.16142 20.3838 8.83165 20.3279C8.50189 20.2719 8.16007 20.3006 7.84944 20.4104C7.5388 20.5201 7.2733 20.706 7.0865 20.9444C6.8997 21.1829 6.8 21.4632 6.8 21.75C6.8 22.1346 6.97911 22.5034 7.29792 22.7753C7.61673 23.0472 8.04913 23.2 8.5 23.2Z" fill="black"/>
</svg>
