<svg width="34" height="29" viewBox="0 0 34 29" fill="none" xmlns="http://www.w3.org/2000/svg">
<path d="M17 0C7.55556 0 0 6.44444 0 14.5C0 17.4 1.13333 20.3 3.02222 22.7167L0.377778 26.5833C8.44399e-08 27.0667 8.44399e-08 27.7111 0.377778 28.1944C0.755556 28.6778 1.13333 29 1.88889 29H17C26.4444 29 34 22.5556 34 14.5C34 6.44444 26.4444 0 17 0ZM17 25.7778H5.28889L6.98889 23.3611C7.36667 22.7167 7.36667 22.0722 6.8 21.5889C4.91111 19.6556 3.77778 17.0778 3.77778 14.5C3.77778 8.21667 9.63333 3.22222 17 3.22222C24.3667 3.22222 30.2222 8.21667 30.2222 14.5C30.2222 20.7833 24.3667 25.7778 17 25.7778Z" fill="black"/>
<path d="M17.1884 6.9292H16.9995C15.1107 6.9292 13.4107 7.73476 12.4662 9.02364C11.7107 9.8292 11.8995 10.7959 12.844 11.2792C13.7884 11.7625 14.9218 11.6014 15.4884 10.7959C15.8662 10.3125 16.4329 10.1514 16.9995 10.1514H17.1884C18.1329 10.1514 18.8884 10.7959 18.8884 11.6014C18.8884 12.2459 18.3218 12.8903 17.7551 13.0514L16.4329 13.3736C15.6773 13.5348 15.1107 14.1792 15.1107 14.8236V16.1125C15.1107 17.0792 15.8662 17.7236 16.9995 17.7236C17.944 17.7236 18.8884 17.0792 18.8884 16.2736C21.1551 15.6292 22.6662 13.857 22.6662 11.7625C22.6662 9.18475 20.2107 6.9292 17.1884 6.9292Z" fill="black"/>
<path d="M17.0002 22.5557C18.0434 22.5557 18.8891 21.8344 18.8891 20.9446C18.8891 20.0548 18.0434 19.3335 17.0002 19.3335C15.957 19.3335 15.1113 20.0548 15.1113 20.9446C15.1113 21.8344 15.957 22.5557 17.0002 22.5557Z" fill="black"/>
</svg>
