<svg width="40" height="35" viewBox="0 0 40 35" fill="none" xmlns="http://www.w3.org/2000/svg">
<path d="M26.5385 25.3077V29.7692C26.5385 30.3608 26.263 30.9283 25.7725 31.3466C25.282 31.7649 24.6168 32 23.9231 32H5.61539C4.92174 32 4.25651 31.7649 3.76603 31.3466C3.27555 30.9283 3 30.3608 3 29.7692V5.23077C3 4.63912 3.27555 4.07173 3.76603 3.65338C4.25651 3.23503 4.92174 3 5.61539 3H23.9231C24.6168 3 25.282 3.23503 25.7725 3.65338C26.263 4.07173 26.5385 4.63912 26.5385 5.23077V9.69231" stroke="#121212" stroke-width="4.5" stroke-linecap="round" stroke-linejoin="round"/>
<path d="M36.9998 17.4946H16.0767" stroke="#121212" stroke-width="4.5" stroke-linecap="round" stroke-linejoin="round"/>
<path d="M21.3074 13.0371L16.0767 17.4986L21.3074 21.9602" stroke="#121212" stroke-width="4.5" stroke-linecap="round" stroke-linejoin="round"/>
</svg>
