<svg width="50" height="50" viewBox="0 0 50 50" fill="none" xmlns="http://www.w3.org/2000/svg">
<g clip-path="url(#clip0_254_798)">
<path d="M48.1857 37.625H36.1935C35.2794 37.625 34.506 36.9453 34.3966 36.0391C34.1778 34.2969 33.4825 32.6562 32.381 31.2891C31.8185 30.5859 31.8497 29.5781 32.4669 28.9219C34.3732 26.875 37.0763 25.6953 39.881 25.6953C45.4669 25.6953 50.006 30.2344 50.006 35.8203C50.0008 36.3001 49.8069 36.7585 49.4662 37.0963C49.1255 37.434 48.6654 37.624 48.1857 37.625ZM37.6935 34H46.1153C45.3263 31.2969 42.8263 29.3125 39.8732 29.3125C38.5372 29.3125 37.2716 29.7031 36.2013 30.4453C36.8732 31.5469 37.3732 32.7422 37.6935 34Z" fill="black"/>
<path d="M39.875 26.8125C37.4609 26.8125 35.3203 25.1953 34.6719 22.8828C34.5391 22.4141 34.4609 21.9141 34.4609 21.3984C34.4609 18.4141 36.8906 15.9844 39.875 15.9844C42.8594 15.9844 45.2891 18.4141 45.2891 21.3984C45.2891 21.9062 45.2188 22.4141 45.0781 22.8906C44.4297 25.1953 42.2812 26.8125 39.875 26.8125ZM39.875 19.6094C39.5995 19.61 39.3279 19.674 39.0812 19.7966C38.8345 19.9191 38.6193 20.0968 38.4523 20.3159C38.2853 20.535 38.1711 20.7896 38.1184 21.06C38.0657 21.3304 38.076 21.6092 38.1484 21.875C38.3672 22.6563 39.0781 23.1875 39.875 23.1875C40.6719 23.1875 41.3828 22.6563 41.5938 21.8906C41.6406 21.7266 41.6641 21.5625 41.6641 21.3984C41.6641 20.4141 40.8594 19.6094 39.875 19.6094ZM13.8125 37.625H1.8125C0.8125 37.625 0 36.8125 0 35.8125C0 30.2266 4.54688 25.6875 10.1328 25.6875C12.9375 25.6875 15.6328 26.8672 17.5469 28.9219C18.1641 29.5859 18.1953 30.5938 17.625 31.2969C16.52 32.6563 15.8213 34.3001 15.6094 36.0391C15.5541 36.4768 15.3411 36.8793 15.0103 37.1712C14.6795 37.4632 14.2537 37.6245 13.8125 37.625ZM3.88281 34H12.3125C12.625 32.75 13.1328 31.5469 13.8047 30.4453C12.7265 29.7049 11.4486 29.3098 10.1406 29.3125C7.17187 29.3125 4.66406 31.2891 3.88281 34Z" fill="black"/>
<path d="M10.125 26.8125C7.71094 26.8125 5.57031 25.1953 4.92187 22.8828C4.78906 22.4141 4.71094 21.9141 4.71094 21.3984C4.71094 18.4141 7.14062 15.9844 10.125 15.9844C13.1094 15.9844 15.5391 18.4141 15.5391 21.3984C15.5391 21.9062 15.4688 22.4141 15.3281 22.8906C14.6797 25.1953 12.5391 26.8125 10.125 26.8125ZM10.125 19.6094C9.84953 19.61 9.57791 19.674 9.33119 19.7966C9.08447 19.9191 8.86928 20.0968 8.70231 20.3159C8.53535 20.535 8.42108 20.7896 8.36838 21.06C8.31569 21.3304 8.32597 21.6092 8.39844 21.875C8.61719 22.6563 9.32812 23.1875 10.125 23.1875C10.9219 23.1875 11.6328 22.6563 11.8437 21.8906C11.9211 21.6244 11.9353 21.3438 11.8853 21.0711C11.8353 20.7984 11.7224 20.5411 11.5555 20.3197C11.3887 20.0982 11.1725 19.9188 10.9242 19.7955C10.6759 19.6722 10.4022 19.6084 10.125 19.6094ZM36.2891 39.0312H13.7187C12.7187 39.0312 11.9062 38.2188 11.9062 37.2188C11.9062 36.6484 11.9453 36.0938 12.0156 35.5625C12.3047 33.1719 13.2734 30.8984 14.8047 29.0078C17.3047 25.9063 21.0156 24.125 25 24.125C28.9766 24.125 32.6953 25.9062 35.1953 29C36.7266 30.8906 37.6875 33.1719 37.9844 35.5781C38.0547 36.0859 38.0859 36.6406 38.0859 37.2109C38.089 37.4489 38.0449 37.6851 37.9559 37.9058C37.867 38.1265 37.7352 38.3274 37.568 38.4967C37.4008 38.666 37.2017 38.8005 36.9822 38.8923C36.7626 38.984 36.527 39.0313 36.2891 39.0312ZM15.7031 35.4062H34.2969C34 33.8906 33.3516 32.4766 32.3828 31.2813C31.4965 30.1778 30.3736 29.2876 29.0971 28.6764C27.8206 28.0652 26.4231 27.7486 25.0078 27.75C22.125 27.75 19.4375 29.0391 17.6328 31.2813C16.6484 32.4922 15.9922 33.9062 15.7031 35.4062Z" fill="black"/>
<path d="M25.0001 24.3672C22.0157 24.3672 19.3672 22.3672 18.5547 19.5C18.3812 18.9036 18.2944 18.2852 18.2969 17.6641C18.2969 13.9688 21.3047 10.9609 25.0001 10.9609C28.6954 10.9609 31.7032 13.9688 31.7032 17.6641C31.7032 18.2969 31.6172 18.9219 31.4376 19.5156C30.6329 22.3672 27.9844 24.3672 25.0001 24.3672ZM25.0001 14.5938C23.3047 14.5938 21.9219 15.9766 21.9219 17.6719C21.9236 18.4877 22.2484 19.2697 22.8253 19.8466C23.4022 20.4235 24.1842 20.7483 25.0001 20.75C26.3672 20.75 27.586 19.8359 27.9532 18.5234C28.0313 18.2422 28.0704 17.9609 28.0704 17.6719C28.0718 17.2679 27.9934 16.8676 27.8397 16.494C27.6861 16.1204 27.4601 15.7809 27.1748 15.4949C26.8895 15.2088 26.5505 14.982 26.1773 14.8274C25.8041 14.6727 25.404 14.5933 25.0001 14.5938Z" fill="black"/>
</g>
<defs>
<clipPath id="clip0_254_798">
<rect width="50" height="50" fill="white"/>
</clipPath>
</defs>
</svg>
