<svg width="34" height="29" viewBox="0 0 34 29" fill="none" xmlns="http://www.w3.org/2000/svg">
<path d="M28.2395 13.7293C27.9174 13.7293 27.6086 13.6202 27.3809 13.426C27.1531 13.2317 27.0252 12.9683 27.0252 12.6936V9.76875C27.0252 5.62589 22.5372 2.3116 17.0195 2.3116C11.5018 2.3116 7.01378 5.66732 7.01378 9.76875V12.6936C7.01378 12.9683 6.88584 13.2317 6.65812 13.426C6.4304 13.6202 6.12154 13.7293 5.79949 13.7293C5.47744 13.7293 5.16858 13.6202 4.94086 13.426C4.71314 13.2317 4.58521 12.9683 4.58521 12.6936V9.76875C4.58521 4.49903 10.1709 0.207031 17.0195 0.207031C23.8681 0.207031 29.4538 4.49903 29.4538 9.76875V12.6936C29.4551 12.8299 29.4245 12.9651 29.364 13.0913C29.3034 13.2174 29.214 13.332 29.101 13.4284C28.988 13.5248 28.8536 13.6011 28.7057 13.6527C28.5578 13.7044 28.3993 13.7304 28.2395 13.7293Z" fill="black"/>
<path d="M24.9561 23.475C24.634 23.475 24.3252 23.3659 24.0975 23.1716C23.8697 22.9774 23.7418 22.714 23.7418 22.4393V12.6041C23.7519 12.3352 23.8843 12.0802 24.1109 11.8931C24.3375 11.706 24.6407 11.6014 24.9561 11.6016C29.1429 11.6016 32.5526 14.2778 32.5526 17.559C32.5526 20.8401 29.1429 23.475 24.9561 23.475ZM26.1704 13.7476V21.2958C27.2335 21.1457 28.2044 20.6899 28.9219 20.0041C29.6393 19.3183 30.0601 18.4438 30.1144 17.5258C30.0623 16.6064 29.6424 15.73 28.9248 15.0425C28.2072 14.355 27.235 13.898 26.1704 13.7476ZM9.04408 23.475C4.85722 23.475 1.44751 20.807 1.44751 17.5258C1.44751 14.2447 4.85722 11.6016 9.04408 11.6016C9.36613 11.6016 9.67499 11.7107 9.90271 11.9049C10.1304 12.0992 10.2584 12.3626 10.2584 12.6373V22.4393C10.2584 22.714 10.1304 22.9774 9.90271 23.1716C9.67499 23.3659 9.36613 23.475 9.04408 23.475ZM7.8298 13.7476C6.76512 13.898 5.793 14.355 5.07537 15.0425C4.35773 15.73 3.9379 16.6064 3.8858 17.5258C3.94006 18.4438 4.36086 19.3183 5.07831 20.0041C5.79576 20.6899 6.76667 21.1457 7.8298 21.2958V13.7476Z" fill="black"/>
<path d="M24.5578 26.8463H20.5361C20.214 26.8463 19.9052 26.7372 19.6774 26.5429C19.4497 26.3487 19.3218 26.0853 19.3218 25.8106C19.3218 25.5359 19.4497 25.2725 19.6774 25.0782C19.9052 24.884 20.214 24.7749 20.5361 24.7749H24.5578C25.1864 24.7749 25.7893 24.5619 26.2338 24.1827C26.6783 23.8036 26.9281 23.2893 26.9281 22.7531V22.2974C26.9281 22.0227 27.056 21.7593 27.2837 21.5651C27.5114 21.3708 27.8203 21.2617 28.1423 21.2617C28.4644 21.2617 28.7733 21.3708 29.001 21.5651C29.2287 21.7593 29.3566 22.0227 29.3566 22.2974V22.7531C29.3566 23.8387 28.851 24.8798 27.9511 25.6474C27.0511 26.4151 25.8305 26.8463 24.5578 26.8463Z" fill="black"/>
<path d="M18.4571 28.7947H16.0576C15.1765 28.7947 14.3315 28.4961 13.7084 27.9647C13.0854 27.4333 12.7354 26.7125 12.7354 25.961V25.845C12.7379 25.0948 13.0891 24.3762 13.7119 23.8466C14.3346 23.3169 15.1782 23.0195 16.0576 23.0195H18.4571C19.3356 23.0195 20.1782 23.3172 20.7994 23.8471C21.4206 24.377 21.7696 25.0956 21.7696 25.845V25.961C21.7696 26.7111 21.4209 27.4306 20.8 27.9618C20.179 28.493 19.3365 28.7925 18.4571 28.7947ZM16.0771 25.091C15.8417 25.0909 15.6159 25.1701 15.4485 25.3113C15.2812 25.4525 15.1859 25.6442 15.1834 25.845V25.961C15.1834 26.1631 15.2775 26.357 15.4451 26.5C15.6127 26.6429 15.84 26.7232 16.0771 26.7232H18.4571C18.6924 26.7211 18.9172 26.6398 19.0827 26.4971C19.2483 26.3543 19.3411 26.1617 19.3411 25.961V25.845C19.3411 25.645 19.2479 25.4532 19.0821 25.3118C18.9164 25.1704 18.6915 25.091 18.4571 25.091H16.0771Z" fill="black"/>
</svg>
